  0
SECTION
  2
HEADER
  9
$ACADVER
  1
AC1009
  9
$INSBASE
 10
0.000000
 20
0.000000
  9
$LIMMIN
 10
-10000.000000
 20
-10000.000000
  9
$LIMMAX
 10
90000.000000
 20
90000.000000
  9
$EXTMIN
 10
-10000.000000
 20
-10000.000000
  9
$EXTMAX
 10
90000.000000
 20
90000.000000
  9
$ATTMODE
 70
0
  9
$LUNITS
 70
2
  9
$LUPREC
 70
4
  9
$THICKNESS
 40
10.400000
  0
ENDSEC
  0
SECTION
  2
TABLES
  0
TABLE
  2
LTYPE
 70
1
  0
LTYPE
  3
Solid Line
  2
CONTINUOUS
 70
0
 72
65
 73
0
 40
0.000000
  0
ENDTAB
  0
TABLE
  2
LAYER
 70
2
  0
LAYER
  2
0
 70
0
 62
7
  6
CONTINUOUS
  0
LAYER
  2
0
 70
0
 62
4
  6
CONTINUOUS
  0
ENDTAB
  0
TABLE
  2
STYLE
 70
1
  0
STYLE
  2
STANDARD
 70
0
 40
0.000000
 41
1.000000
 50
0.000000
 71
0
 42
0.200000
  3
txt
  0
ENDTAB
  0
ENDSEC
  0
SECTION
  2
BLOCKS
  0
BLOCK
  8
0
  2
FIGURE_CIRCLE
 70
0
 10
0.000000
 20
0.000000
  0
CIRCLE
  8
0
 10
0.000000
 20
0.000000
 40
0.500000
  0
ENDBLK
  0
BLOCK
  8
0
  2
FIGURE_SQUARE
 70
0
 10
0.000000
 20
0.000000
  0
POLYLINE
  8
0
 66
1
 70
1
 40
0.000000
 41
0.000000
 39
0.000000
  0
VERTEX
  8
0
 10
-0.500000
 20
-0.500000
 40
0.000000
 41
0.000000
 42
0.000000
  0
VERTEX
  8
0
 10
-0.500000
 20
0.500000
 40
0.000000
 41
0.000000
 42
0.000000
  0
VERTEX
  8
0
 10
0.500000
 20
0.500000
 40
0.000000
 41
0.000000
 42
0.000000
  0
VERTEX
  8
0
 10
0.500000
 20
-0.500000
 40
0.000000
 41
0.000000
 42
0.000000
  0
SEQEND
  0
ENDBLK
  0
BLOCK
  8
0
  2
FIGURE_HEX
 70
0
 10
0.000000
 20
0.000000
  0
POLYLINE
  8
0
 66
1
 70
1
 40
0.000000
 41
0.000000
 39
0.000000
  0
VERTEX
  8
0
 10
-0.500000
 20
0.000000
 40
0.000000
 41
0.000000
 42
0.000000
  0
VERTEX
  8
0
 10
-0.250000
 20
0.500000
 40
0.000000
 41
0.000000
 42
0.000000
  0
VERTEX
  8
0
 10
0.250000
 20
0.500000
 40
0.000000
 41
0.000000
 42
0.000000
  0
VERTEX
  8
0
 10
0.500000
 20
0.000000
 40
0.000000
 41
0.000000
 42
0.000000
  0
VERTEX
  8
0
 10
0.250000
 20
-0.500000
 40
0.000000
 41
0.000000
 42
0.000000
  0
VERTEX
  8
0
 10
-0.250000
 20
-0.500000
 40
0.000000
 41
0.000000
 42
0.000000
  0
SEQEND
  0
ENDBLK
  0
BLOCK
  8
0
  2
FIGURE_OCT
 70
0
 10
0.000000
 20
0.000000
  0
POLYLINE
  8
0
 66
1
 70
1
 40
0.000000
 41
0.000000
 39
0.000000
  0
VERTEX
  8
0
 10
-0.500000
 20
-0.207100
 40
0.000000
 41
0.000000
 42
0.000000
  0
VERTEX
  8
0
 10
-0.500000
 20
0.207100
 40
0.000000
 41
0.000000
 42
0.000000
  0
VERTEX
  8
0
 10
-0.207100
 20
0.500000
 40
0.000000
 41
0.000000
 42
0.000000
  0
VERTEX
  8
0
 10
0.207100
 20
0.500000
 40
0.000000
 41
0.000000
 42
0.000000
  0
VERTEX
  8
0
 10
0.500000
 20
0.207100
 40
0.000000
 41
0.000000
 42
0.000000
  0
VERTEX
  8
0
 10
0.500000
 20
-0.207100
 40
0.000000
 41
0.000000
 42
0.000000
  0
VERTEX
  8
0
 10
0.207100
 20
-0.500000
 40
0.000000
 41
0.000000
 42
0.000000
  0
VERTEX
  8
0
 10
-0.207100
 20
-0.500000
 40
0.000000
 41
0.000000
 42
0.000000
  0
SEQEND
  0
ENDBLK
  0
BLOCK
  8
0
  2
FIGURE_OBLONG
 70
0
 10
0.000000
 20
0.000000
  0
POLYLINE
  8
0
 66
1
 70
1
 40
0.000000
 41
0.000000
 39
0.000000
  0
VERTEX
  8
0
 10
-0.500000
 20
-0.125000
 40
0.000000
 41
0.000000
 42
0.000000
  0
VERTEX
  8
0
 10
-0.500000
 20
0.125000
 40
0.000000
 41
0.000000
 42
0.000000
  0
VERTEX
  8
0
 10
-0.416000
 20
0.375000
 40
0.000000
 41
0.000000
 42
0.000000
  0
VERTEX
  8
0
 10
-0.250000
 20
0.500000
 40
0.000000
 41
0.000000
 42
0.000000
  0
VERTEX
  8
0
 10
0.250000
 20
0.500000
 40
0.000000
 41
0.000000
 42
0.000000
  0
VERTEX
  8
0
 10
0.416000
 20
0.375000
 40
0.000000
 41
0.000000
 42
0.000000
  0
VERTEX
  8
0
 10
0.500000
 20
0.125000
 40
0.000000
 41
0.000000
 42
0.000000
  0
VERTEX
  8
0
 10
0.500000
 20
-0.125000
 40
0.000000
 41
0.000000
 42
0.000000
  0
VERTEX
  8
0
 10
0.416000
 20
-0.375000
 40
0.000000
 41
0.000000
 42
0.000000
  0
VERTEX
  8
0
 10
0.250000
 20
-0.500000
 40
0.000000
 41
0.000000
 42
0.000000
  0
VERTEX
  8
0
 10
-0.250000
 20
-0.500000
 40
0.000000
 41
0.000000
 42
0.000000
  0
VERTEX
  8
0
 10
-0.416000
 20
-0.375000
 40
0.000000
 41
0.000000
 42
0.000000
  0
SEQEND
  0
ENDBLK
  0
BLOCK
  8
0
  2
FIGURE_TRI
 70
0
 10
0.000000
 20
0.000000
  0
POLYLINE
  8
0
 66
1
 70
1
 40
0.000000
 41
0.000000
 39
0.000000
  0
VERTEX
  8
0
 10
-0.500000
 20
-0.500000
 40
0.000000
 41
0.000000
 42
0.000000
  0
VERTEX
  8
0
 10
0.000000
 20
0.500000
 40
0.000000
 41
0.000000
 42
0.000000
  0
VERTEX
  8
0
 10
0.500000
 20
-0.500000
 40
0.000000
 41
0.000000
 42
0.000000
  0
SEQEND
  0
ENDBLK
  0
BLOCK
  8
0
  2
FIGURE_CROSS
 70
0
 10
0.000000
 20
0.000000
  0
POLYLINE
  8
0
 66
1
 70
0
 40
0.000000
 41
0.000000
 39
0.000000
  0
VERTEX
  8
0
 10
-0.500000
 20
0.000000
 40
0.000000
 41
0.000000
 42
0.000000
  0
VERTEX
  8
0
 10
0.500000
 20
0.000000
 40
0.000000
 41
0.000000
 42
0.000000
  0
SEQEND
  0
POLYLINE
  8
0
 66
1
 70
0
 40
0.000000
 41
0.000000
 39
0.000000
  0
VERTEX
  8
0
 10
0.000000
 20
0.500000
 40
0.000000
 41
0.000000
 42
0.000000
  0
VERTEX
  8
0
 10
0.000000
 20
-0.500000
 40
0.000000
 41
0.000000
 42
0.000000
  0
SEQEND
  0
ENDBLK
  0
BLOCK
  8
0
  2
FIGURE_DIAMOND
 70
0
 10
0.000000
 20
0.000000
  0
POLYLINE
  8
0
 66
1
 70
1
 40
0.000000
 41
0.000000
 39
0.000000
  0
VERTEX
  8
0
 10
-0.500000
 20
0.000000
 40
0.000000
 41
0.000000
 42
0.000000
  0
VERTEX
  8
0
 10
0.000000
 20
0.500000
 40
0.000000
 41
0.000000
 42
0.000000
  0
VERTEX
  8
0
 10
0.500000
 20
0.000000
 40
0.000000
 41
0.000000
 42
0.000000
  0
VERTEX
  8
0
 10
0.000000
 20
-0.500000
 40
0.000000
 41
0.000000
 42
0.000000
  0
SEQEND
  0
ENDBLK
  0
ENDSEC
  0
SECTION
  2
ENTITIES
  0
POLYLINE
  8
0
 66
1
 70
0
 40
0.000000
 41
0.000000
 39
0.000000
  0
VERTEX
  8
0
 10
691.023600
 20
908.858300
 40
0.000000
 41
0.000000
 42
0.000000
  0
VERTEX
  8
0
 10
690.944900
 20
908.858300
 40
0.000000
 41
0.000000
 42
0.000000
  0
VERTEX
  8
0
 10
690.944900
 20
784.055100
 40
0.000000
 41
0.000000
 42
0.000000
  0
SEQEND
  0
POLYLINE
  8
0
 66
1
 70
0
 40
0.000000
 41
0.000000
 39
0.000000
  0
VERTEX
  8
0
 10
731.023600
 20
784.055100
 40
0.000000
 41
0.000000
 42
0.000000
  0
VERTEX
  8
0
 10
731.102400
 20
784.055100
 40
0.000000
 41
0.000000
 42
0.000000
  0
VERTEX
  8
0
 10
731.102400
 20
908.858300
 40
0.000000
 41
0.000000
 42
0.000000
  0
VERTEX
  8
0
 10
731.023600
 20
908.858300
 40
0.000000
 41
0.000000
 42
0.000000
  0
SEQEND
  0
POLYLINE
  8
0
 66
1
 70
0
 40
0.000000
 41
0.000000
 39
0.000000
  0
VERTEX
  8
0
 10
690.944900
 20
784.055100
 40
0.000000
 41
0.000000
 42
0.000000
  0
VERTEX
  8
0
 10
691.023600
 20
784.055100
 40
0.000000
 41
0.000000
 42
0.000000
  0
SEQEND
  0
POLYLINE
  8
0
 66
1
 70
0
 40
0.000000
 41
0.000000
 39
0.000000
  0
VERTEX
  8
0
 10
1756.378000
 20
908.858300
 40
0.000000
 41
0.000000
 42
0.000000
  0
VERTEX
  8
0
 10
1756.299200
 20
908.858300
 40
0.000000
 41
0.000000
 42
0.000000
  0
VERTEX
  8
0
 10
1756.299200
 20
784.055100
 40
0.000000
 41
0.000000
 42
0.000000
  0
SEQEND
  0
POLYLINE
  8
0
 66
1
 70
0
 40
0.000000
 41
0.000000
 39
0.000000
  0
VERTEX
  8
0
 10
1796.378000
 20
784.055100
 40
0.000000
 41
0.000000
 42
0.000000
  0
VERTEX
  8
0
 10
1796.456700
 20
784.055100
 40
0.000000
 41
0.000000
 42
0.000000
  0
VERTEX
  8
0
 10
1796.456700
 20
908.858300
 40
0.000000
 41
0.000000
 42
0.000000
  0
VERTEX
  8
0
 10
1796.378000
 20
908.858300
 40
0.000000
 41
0.000000
 42
0.000000
  0
SEQEND
  0
POLYLINE
  8
0
 66
1
 70
0
 40
0.000000
 41
0.000000
 39
0.000000
  0
VERTEX
  8
0
 10
1756.299200
 20
784.055100
 40
0.000000
 41
0.000000
 42
0.000000
  0
VERTEX
  8
0
 10
1756.378000
 20
784.055100
 40
0.000000
 41
0.000000
 42
0.000000
  0
SEQEND
  0
POLYLINE
  8
0
 66
1
 70
0
 40
0.000000
 41
0.000000
 39
0.000000
  0
VERTEX
  8
0
 10
791.023600
 20
784.055100
 40
0.000000
 41
0.000000
 42
0.000000
  0
VERTEX
  8
0
 10
790.944900
 20
784.055100
 40
0.000000
 41
0.000000
 42
0.000000
  0
VERTEX
  8
0
 10
790.944900
 20
659.252000
 40
0.000000
 41
0.000000
 42
0.000000
  0
SEQEND
  0
POLYLINE
  8
0
 66
1
 70
0
 40
0.000000
 41
0.000000
 39
0.000000
  0
VERTEX
  8
0
 10
831.023600
 20
659.252000
 40
0.000000
 41
0.000000
 42
0.000000
  0
VERTEX
  8
0
 10
831.102400
 20
659.252000
 40
0.000000
 41
0.000000
 42
0.000000
  0
VERTEX
  8
0
 10
831.102400
 20
784.055100
 40
0.000000
 41
0.000000
 42
0.000000
  0
VERTEX
  8
0
 10
831.023600
 20
784.055100
 40
0.000000
 41
0.000000
 42
0.000000
  0
SEQEND
  0
POLYLINE
  8
0
 66
1
 70
0
 40
0.000000
 41
0.000000
 39
0.000000
  0
VERTEX
  8
0
 10
790.944900
 20
659.252000
 40
0.000000
 41
0.000000
 42
0.000000
  0
VERTEX
  8
0
 10
791.023600
 20
659.252000
 40
0.000000
 41
0.000000
 42
0.000000
  0
SEQEND
  0
POLYLINE
  8
0
 66
1
 70
0
 40
0.000000
 41
0.000000
 39
0.000000
  0
VERTEX
  8
0
 10
1856.378000
 20
784.055100
 40
0.000000
 41
0.000000
 42
0.000000
  0
VERTEX
  8
0
 10
1856.299200
 20
784.055100
 40
0.000000
 41
0.000000
 42
0.000000
  0
VERTEX
  8
0
 10
1856.299200
 20
659.252000
 40
0.000000
 41
0.000000
 42
0.000000
  0
SEQEND
  0
POLYLINE
  8
0
 66
1
 70
0
 40
0.000000
 41
0.000000
 39
0.000000
  0
VERTEX
  8
0
 10
1896.378000
 20
659.252000
 40
0.000000
 41
0.000000
 42
0.000000
  0
VERTEX
  8
0
 10
1896.456700
 20
659.252000
 40
0.000000
 41
0.000000
 42
0.000000
  0
VERTEX
  8
0
 10
1896.456700
 20
784.055100
 40
0.000000
 41
0.000000
 42
0.000000
  0
VERTEX
  8
0
 10
1896.378000
 20
784.055100
 40
0.000000
 41
0.000000
 42
0.000000
  0
SEQEND
  0
POLYLINE
  8
0
 66
1
 70
0
 40
0.000000
 41
0.000000
 39
0.000000
  0
VERTEX
  8
0
 10
1856.299200
 20
659.252000
 40
0.000000
 41
0.000000
 42
0.000000
  0
VERTEX
  8
0
 10
1856.378000
 20
659.252000
 40
0.000000
 41
0.000000
 42
0.000000
  0
SEQEND
  0
POLYLINE
  8
0
 66
1
 70
0
 40
0.000000
 41
0.000000
 39
0.000000
  0
VERTEX
  8
0
 10
723.700800
 20
2272.244100
 40
0.000000
 41
0.000000
 42
0.000000
  0
VERTEX
  8
0
 10
723.622000
 20
2272.244100
 40
0.000000
 41
0.000000
 42
0.000000
  0
VERTEX
  8
0
 10
723.622000
 20
2147.440900
 40
0.000000
 41
0.000000
 42
0.000000
  0
SEQEND
  0
POLYLINE
  8
0
 66
1
 70
0
 40
0.000000
 41
0.000000
 39
0.000000
  0
VERTEX
  8
0
 10
763.700800
 20
2147.440900
 40
0.000000
 41
0.000000
 42
0.000000
  0
VERTEX
  8
0
 10
763.779500
 20
2147.440900
 40
0.000000
 41
0.000000
 42
0.000000
  0
VERTEX
  8
0
 10
763.779500
 20
2272.244100
 40
0.000000
 41
0.000000
 42
0.000000
  0
VERTEX
  8
0
 10
763.700800
 20
2272.244100
 40
0.000000
 41
0.000000
 42
0.000000
  0
SEQEND
  0
POLYLINE
  8
0
 66
1
 70
0
 40
0.000000
 41
0.000000
 39
0.000000
  0
VERTEX
  8
0
 10
723.622000
 20
2147.440900
 40
0.000000
 41
0.000000
 42
0.000000
  0
VERTEX
  8
0
 10
723.700800
 20
2147.440900
 40
0.000000
 41
0.000000
 42
0.000000
  0
SEQEND
  0
POLYLINE
  8
0
 66
1
 70
0
 40
0.000000
 41
0.000000
 39
0.000000
  0
VERTEX
  8
0
 10
923.700800
 20
2272.244100
 40
0.000000
 41
0.000000
 42
0.000000
  0
VERTEX
  8
0
 10
923.622000
 20
2272.244100
 40
0.000000
 41
0.000000
 42
0.000000
  0
VERTEX
  8
0
 10
923.622000
 20
2147.440900
 40
0.000000
 41
0.000000
 42
0.000000
  0
SEQEND
  0
POLYLINE
  8
0
 66
1
 70
0
 40
0.000000
 41
0.000000
 39
0.000000
  0
VERTEX
  8
0
 10
963.700800
 20
2147.440900
 40
0.000000
 41
0.000000
 42
0.000000
  0
VERTEX
  8
0
 10
963.779500
 20
2147.440900
 40
0.000000
 41
0.000000
 42
0.000000
  0
VERTEX
  8
0
 10
963.779500
 20
2272.244100
 40
0.000000
 41
0.000000
 42
0.000000
  0
VERTEX
  8
0
 10
963.700800
 20
2272.244100
 40
0.000000
 41
0.000000
 42
0.000000
  0
SEQEND
  0
POLYLINE
  8
0
 66
1
 70
0
 40
0.000000
 41
0.000000
 39
0.000000
  0
VERTEX
  8
0
 10
923.622000
 20
2147.440900
 40
0.000000
 41
0.000000
 42
0.000000
  0
VERTEX
  8
0
 10
923.700800
 20
2147.440900
 40
0.000000
 41
0.000000
 42
0.000000
  0
SEQEND
  0
POLYLINE
  8
0
 66
1
 70
0
 40
0.000000
 41
0.000000
 39
0.000000
  0
VERTEX
  8
0
 10
1123.700800
 20
2272.244100
 40
0.000000
 41
0.000000
 42
0.000000
  0
VERTEX
  8
0
 10
1123.622000
 20
2272.244100
 40
0.000000
 41
0.000000
 42
0.000000
  0
VERTEX
  8
0
 10
1123.622000
 20
2147.440900
 40
0.000000
 41
0.000000
 42
0.000000
  0
SEQEND
  0
POLYLINE
  8
0
 66
1
 70
0
 40
0.000000
 41
0.000000
 39
0.000000
  0
VERTEX
  8
0
 10
1163.700800
 20
2147.440900
 40
0.000000
 41
0.000000
 42
0.000000
  0
VERTEX
  8
0
 10
1163.779500
 20
2147.440900
 40
0.000000
 41
0.000000
 42
0.000000
  0
VERTEX
  8
0
 10
1163.779500
 20
2272.244100
 40
0.000000
 41
0.000000
 42
0.000000
  0
VERTEX
  8
0
 10
1163.700800
 20
2272.244100
 40
0.000000
 41
0.000000
 42
0.000000
  0
SEQEND
  0
POLYLINE
  8
0
 66
1
 70
0
 40
0.000000
 41
0.000000
 39
0.000000
  0
VERTEX
  8
0
 10
1123.622000
 20
2147.440900
 40
0.000000
 41
0.000000
 42
0.000000
  0
VERTEX
  8
0
 10
1123.700800
 20
2147.440900
 40
0.000000
 41
0.000000
 42
0.000000
  0
SEQEND
  0
POLYLINE
  8
0
 66
1
 70
0
 40
0.000000
 41
0.000000
 39
0.000000
  0
VERTEX
  8
0
 10
1323.700800
 20
2272.244100
 40
0.000000
 41
0.000000
 42
0.000000
  0
VERTEX
  8
0
 10
1323.622000
 20
2272.244100
 40
0.000000
 41
0.000000
 42
0.000000
  0
VERTEX
  8
0
 10
1323.622000
 20
2147.440900
 40
0.000000
 41
0.000000
 42
0.000000
  0
SEQEND
  0
POLYLINE
  8
0
 66
1
 70
0
 40
0.000000
 41
0.000000
 39
0.000000
  0
VERTEX
  8
0
 10
1363.700800
 20
2147.440900
 40
0.000000
 41
0.000000
 42
0.000000
  0
VERTEX
  8
0
 10
1363.779500
 20
2147.440900
 40
0.000000
 41
0.000000
 42
0.000000
  0
VERTEX
  8
0
 10
1363.779500
 20
2272.244100
 40
0.000000
 41
0.000000
 42
0.000000
  0
VERTEX
  8
0
 10
1363.700800
 20
2272.244100
 40
0.000000
 41
0.000000
 42
0.000000
  0
SEQEND
  0
POLYLINE
  8
0
 66
1
 70
0
 40
0.000000
 41
0.000000
 39
0.000000
  0
VERTEX
  8
0
 10
1323.622000
 20
2147.440900
 40
0.000000
 41
0.000000
 42
0.000000
  0
VERTEX
  8
0
 10
1323.700800
 20
2147.440900
 40
0.000000
 41
0.000000
 42
0.000000
  0
SEQEND
  0
POLYLINE
  8
0
 66
1
 70
0
 40
0.000000
 41
0.000000
 39
0.000000
  0
VERTEX
  8
0
 10
1523.700800
 20
2272.244100
 40
0.000000
 41
0.000000
 42
0.000000
  0
VERTEX
  8
0
 10
1523.622000
 20
2272.244100
 40
0.000000
 41
0.000000
 42
0.000000
  0
VERTEX
  8
0
 10
1523.622000
 20
2147.440900
 40
0.000000
 41
0.000000
 42
0.000000
  0
SEQEND
  0
POLYLINE
  8
0
 66
1
 70
0
 40
0.000000
 41
0.000000
 39
0.000000
  0
VERTEX
  8
0
 10
1563.700800
 20
2147.440900
 40
0.000000
 41
0.000000
 42
0.000000
  0
VERTEX
  8
0
 10
1563.779500
 20
2147.440900
 40
0.000000
 41
0.000000
 42
0.000000
  0
VERTEX
  8
0
 10
1563.779500
 20
2272.244100
 40
0.000000
 41
0.000000
 42
0.000000
  0
VERTEX
  8
0
 10
1563.700800
 20
2272.244100
 40
0.000000
 41
0.000000
 42
0.000000
  0
SEQEND
  0
POLYLINE
  8
0
 66
1
 70
0
 40
0.000000
 41
0.000000
 39
0.000000
  0
VERTEX
  8
0
 10
1523.622000
 20
2147.440900
 40
0.000000
 41
0.000000
 42
0.000000
  0
VERTEX
  8
0
 10
1523.700800
 20
2147.440900
 40
0.000000
 41
0.000000
 42
0.000000
  0
SEQEND
  0
POLYLINE
  8
0
 66
1
 70
0
 40
0.000000
 41
0.000000
 39
0.000000
  0
VERTEX
  8
0
 10
1723.700800
 20
2272.244100
 40
0.000000
 41
0.000000
 42
0.000000
  0
VERTEX
  8
0
 10
1723.622000
 20
2272.244100
 40
0.000000
 41
0.000000
 42
0.000000
  0
VERTEX
  8
0
 10
1723.622000
 20
2147.440900
 40
0.000000
 41
0.000000
 42
0.000000
  0
SEQEND
  0
POLYLINE
  8
0
 66
1
 70
0
 40
0.000000
 41
0.000000
 39
0.000000
  0
VERTEX
  8
0
 10
1763.700800
 20
2147.440900
 40
0.000000
 41
0.000000
 42
0.000000
  0
VERTEX
  8
0
 10
1763.779500
 20
2147.440900
 40
0.000000
 41
0.000000
 42
0.000000
  0
VERTEX
  8
0
 10
1763.779500
 20
2272.244100
 40
0.000000
 41
0.000000
 42
0.000000
  0
VERTEX
  8
0
 10
1763.700800
 20
2272.244100
 40
0.000000
 41
0.000000
 42
0.000000
  0
SEQEND
  0
POLYLINE
  8
0
 66
1
 70
0
 40
0.000000
 41
0.000000
 39
0.000000
  0
VERTEX
  8
0
 10
1723.622000
 20
2147.440900
 40
0.000000
 41
0.000000
 42
0.000000
  0
VERTEX
  8
0
 10
1723.700800
 20
2147.440900
 40
0.000000
 41
0.000000
 42
0.000000
  0
SEQEND
  0
POLYLINE
  8
0
 66
1
 70
0
 40
0.000000
 41
0.000000
 39
0.000000
  0
VERTEX
  8
0
 10
823.700800
 20
2397.047200
 40
0.000000
 41
0.000000
 42
0.000000
  0
VERTEX
  8
0
 10
823.622000
 20
2397.047200
 40
0.000000
 41
0.000000
 42
0.000000
  0
VERTEX
  8
0
 10
823.622000
 20
2272.244100
 40
0.000000
 41
0.000000
 42
0.000000
  0
SEQEND
  0
POLYLINE
  8
0
 66
1
 70
0
 40
0.000000
 41
0.000000
 39
0.000000
  0
VERTEX
  8
0
 10
863.700800
 20
2272.244100
 40
0.000000
 41
0.000000
 42
0.000000
  0
VERTEX
  8
0
 10
863.779500
 20
2272.244100
 40
0.000000
 41
0.000000
 42
0.000000
  0
VERTEX
  8
0
 10
863.779500
 20
2397.047200
 40
0.000000
 41
0.000000
 42
0.000000
  0
VERTEX
  8
0
 10
863.700800
 20
2397.047200
 40
0.000000
 41
0.000000
 42
0.000000
  0
SEQEND
  0
POLYLINE
  8
0
 66
1
 70
0
 40
0.000000
 41
0.000000
 39
0.000000
  0
VERTEX
  8
0
 10
823.622000
 20
2272.244100
 40
0.000000
 41
0.000000
 42
0.000000
  0
VERTEX
  8
0
 10
823.700800
 20
2272.244100
 40
0.000000
 41
0.000000
 42
0.000000
  0
SEQEND
  0
POLYLINE
  8
0
 66
1
 70
0
 40
0.000000
 41
0.000000
 39
0.000000
  0
VERTEX
  8
0
 10
1023.700800
 20
2397.047200
 40
0.000000
 41
0.000000
 42
0.000000
  0
VERTEX
  8
0
 10
1023.622000
 20
2397.047200
 40
0.000000
 41
0.000000
 42
0.000000
  0
VERTEX
  8
0
 10
1023.622000
 20
2272.244100
 40
0.000000
 41
0.000000
 42
0.000000
  0
SEQEND
  0
POLYLINE
  8
0
 66
1
 70
0
 40
0.000000
 41
0.000000
 39
0.000000
  0
VERTEX
  8
0
 10
1063.700800
 20
2272.244100
 40
0.000000
 41
0.000000
 42
0.000000
  0
VERTEX
  8
0
 10
1063.779500
 20
2272.244100
 40
0.000000
 41
0.000000
 42
0.000000
  0
VERTEX
  8
0
 10
1063.779500
 20
2397.047200
 40
0.000000
 41
0.000000
 42
0.000000
  0
VERTEX
  8
0
 10
1063.700800
 20
2397.047200
 40
0.000000
 41
0.000000
 42
0.000000
  0
SEQEND
  0
POLYLINE
  8
0
 66
1
 70
0
 40
0.000000
 41
0.000000
 39
0.000000
  0
VERTEX
  8
0
 10
1023.622000
 20
2272.244100
 40
0.000000
 41
0.000000
 42
0.000000
  0
VERTEX
  8
0
 10
1023.700800
 20
2272.244100
 40
0.000000
 41
0.000000
 42
0.000000
  0
SEQEND
  0
POLYLINE
  8
0
 66
1
 70
0
 40
0.000000
 41
0.000000
 39
0.000000
  0
VERTEX
  8
0
 10
1223.700800
 20
2397.047200
 40
0.000000
 41
0.000000
 42
0.000000
  0
VERTEX
  8
0
 10
1223.622000
 20
2397.047200
 40
0.000000
 41
0.000000
 42
0.000000
  0
VERTEX
  8
0
 10
1223.622000
 20
2272.244100
 40
0.000000
 41
0.000000
 42
0.000000
  0
SEQEND
  0
POLYLINE
  8
0
 66
1
 70
0
 40
0.000000
 41
0.000000
 39
0.000000
  0
VERTEX
  8
0
 10
1263.700800
 20
2272.244100
 40
0.000000
 41
0.000000
 42
0.000000
  0
VERTEX
  8
0
 10
1263.779500
 20
2272.244100
 40
0.000000
 41
0.000000
 42
0.000000
  0
VERTEX
  8
0
 10
1263.779500
 20
2397.047200
 40
0.000000
 41
0.000000
 42
0.000000
  0
VERTEX
  8
0
 10
1263.700800
 20
2397.047200
 40
0.000000
 41
0.000000
 42
0.000000
  0
SEQEND
  0
POLYLINE
  8
0
 66
1
 70
0
 40
0.000000
 41
0.000000
 39
0.000000
  0
VERTEX
  8
0
 10
1223.622000
 20
2272.244100
 40
0.000000
 41
0.000000
 42
0.000000
  0
VERTEX
  8
0
 10
1223.700800
 20
2272.244100
 40
0.000000
 41
0.000000
 42
0.000000
  0
SEQEND
  0
POLYLINE
  8
0
 66
1
 70
0
 40
0.000000
 41
0.000000
 39
0.000000
  0
VERTEX
  8
0
 10
1423.700800
 20
2397.047200
 40
0.000000
 41
0.000000
 42
0.000000
  0
VERTEX
  8
0
 10
1423.622000
 20
2397.047200
 40
0.000000
 41
0.000000
 42
0.000000
  0
VERTEX
  8
0
 10
1423.622000
 20
2272.244100
 40
0.000000
 41
0.000000
 42
0.000000
  0
SEQEND
  0
POLYLINE
  8
0
 66
1
 70
0
 40
0.000000
 41
0.000000
 39
0.000000
  0
VERTEX
  8
0
 10
1463.700800
 20
2272.244100
 40
0.000000
 41
0.000000
 42
0.000000
  0
VERTEX
  8
0
 10
1463.779500
 20
2272.244100
 40
0.000000
 41
0.000000
 42
0.000000
  0
VERTEX
  8
0
 10
1463.779500
 20
2397.047200
 40
0.000000
 41
0.000000
 42
0.000000
  0
VERTEX
  8
0
 10
1463.700800
 20
2397.047200
 40
0.000000
 41
0.000000
 42
0.000000
  0
SEQEND
  0
POLYLINE
  8
0
 66
1
 70
0
 40
0.000000
 41
0.000000
 39
0.000000
  0
VERTEX
  8
0
 10
1423.622000
 20
2272.244100
 40
0.000000
 41
0.000000
 42
0.000000
  0
VERTEX
  8
0
 10
1423.700800
 20
2272.244100
 40
0.000000
 41
0.000000
 42
0.000000
  0
SEQEND
  0
POLYLINE
  8
0
 66
1
 70
0
 40
0.000000
 41
0.000000
 39
0.000000
  0
VERTEX
  8
0
 10
1623.700800
 20
2397.047200
 40
0.000000
 41
0.000000
 42
0.000000
  0
VERTEX
  8
0
 10
1623.622000
 20
2397.047200
 40
0.000000
 41
0.000000
 42
0.000000
  0
VERTEX
  8
0
 10
1623.622000
 20
2272.244100
 40
0.000000
 41
0.000000
 42
0.000000
  0
SEQEND
  0
POLYLINE
  8
0
 66
1
 70
0
 40
0.000000
 41
0.000000
 39
0.000000
  0
VERTEX
  8
0
 10
1663.700800
 20
2272.244100
 40
0.000000
 41
0.000000
 42
0.000000
  0
VERTEX
  8
0
 10
1663.779500
 20
2272.244100
 40
0.000000
 41
0.000000
 42
0.000000
  0
VERTEX
  8
0
 10
1663.779500
 20
2397.047200
 40
0.000000
 41
0.000000
 42
0.000000
  0
VERTEX
  8
0
 10
1663.700800
 20
2397.047200
 40
0.000000
 41
0.000000
 42
0.000000
  0
SEQEND
  0
POLYLINE
  8
0
 66
1
 70
0
 40
0.000000
 41
0.000000
 39
0.000000
  0
VERTEX
  8
0
 10
1623.622000
 20
2272.244100
 40
0.000000
 41
0.000000
 42
0.000000
  0
VERTEX
  8
0
 10
1623.700800
 20
2272.244100
 40
0.000000
 41
0.000000
 42
0.000000
  0
SEQEND
  0
POLYLINE
  8
0
 66
1
 70
0
 40
0.000000
 41
0.000000
 39
0.000000
  0
VERTEX
  8
0
 10
1823.700800
 20
2397.047200
 40
0.000000
 41
0.000000
 42
0.000000
  0
VERTEX
  8
0
 10
1823.622000
 20
2397.047200
 40
0.000000
 41
0.000000
 42
0.000000
  0
VERTEX
  8
0
 10
1823.622000
 20
2272.244100
 40
0.000000
 41
0.000000
 42
0.000000
  0
SEQEND
  0
POLYLINE
  8
0
 66
1
 70
0
 40
0.000000
 41
0.000000
 39
0.000000
  0
VERTEX
  8
0
 10
1863.700800
 20
2272.244100
 40
0.000000
 41
0.000000
 42
0.000000
  0
VERTEX
  8
0
 10
1863.779500
 20
2272.244100
 40
0.000000
 41
0.000000
 42
0.000000
  0
VERTEX
  8
0
 10
1863.779500
 20
2397.047200
 40
0.000000
 41
0.000000
 42
0.000000
  0
VERTEX
  8
0
 10
1863.700800
 20
2397.047200
 40
0.000000
 41
0.000000
 42
0.000000
  0
SEQEND
  0
POLYLINE
  8
0
 66
1
 70
0
 40
0.000000
 41
0.000000
 39
0.000000
  0
VERTEX
  8
0
 10
1823.622000
 20
2272.244100
 40
0.000000
 41
0.000000
 42
0.000000
  0
VERTEX
  8
0
 10
1823.700800
 20
2272.244100
 40
0.000000
 41
0.000000
 42
0.000000
  0
SEQEND
  0
POLYLINE
  8
0
 66
1
 70
0
 40
0.000000
 41
0.000000
 39
0.000000
  0
VERTEX
  8
0
 10
1896.378000
 20
750.143500
 40
0.000000
 41
0.000000
 42
0.265468
  0
VERTEX
  8
0
 10
1915.748000
 20
784.055100
 40
0.000000
 41
0.000000
 42
0.000000
  0
SEQEND
  0
POLYLINE
  8
0
 66
1
 70
0
 40
0.000000
 41
0.000000
 39
0.000000
  0
VERTEX
  8
0
 10
1837.007900
 20
784.055100
 40
0.000000
 41
0.000000
 42
0.265469
  0
VERTEX
  8
0
 10
1856.378000
 20
750.143400
 40
0.000000
 41
0.000000
 42
0.000000
  0
SEQEND
  0
POLYLINE
  8
0
 66
1
 70
0
 40
0.000000
 41
0.000000
 39
0.000000
  0
VERTEX
  8
0
 10
1915.748000
 20
784.055100
 40
0.000000
 41
0.000000
 42
1.000000
  0
VERTEX
  8
0
 10
1837.007900
 20
784.055100
 40
0.000000
 41
0.000000
 42
0.000000
  0
SEQEND
  0
POLYLINE
  8
0
 66
1
 70
0
 40
0.000000
 41
0.000000
 39
0.000000
  0
VERTEX
  8
0
 10
1814.173200
 20
2272.244100
 40
0.000000
 41
0.000000
 42
1.000000
  0
VERTEX
  8
0
 10
1873.228300
 20
2272.244100
 40
0.000000
 41
0.000000
 42
0.000000
  0
SEQEND
  0
POLYLINE
  8
0
 66
1
 70
0
 40
0.000000
 41
0.000000
 39
0.000000
  0
VERTEX
  8
0
 10
1823.700800
 20
2293.966900
 40
0.000000
 41
0.000000
 42
0.209660
  0
VERTEX
  8
0
 10
1814.173200
 20
2272.244100
 40
0.000000
 41
0.000000
 42
0.000000
  0
SEQEND
  0
POLYLINE
  8
0
 66
1
 70
0
 40
0.000000
 41
0.000000
 39
0.000000
  0
VERTEX
  8
0
 10
1873.228300
 20
2272.244100
 40
0.000000
 41
0.000000
 42
0.209659
  0
VERTEX
  8
0
 10
1863.700800
 20
2293.966800
 40
0.000000
 41
0.000000
 42
0.000000
  0
SEQEND
  0
POLYLINE
  8
0
 66
1
 70
0
 40
0.000000
 41
0.000000
 39
0.000000
  0
VERTEX
  8
0
 10
1737.007900
 20
784.055100
 40
0.000000
 41
0.000000
 42
1.000000
  0
VERTEX
  8
0
 10
1815.748000
 20
784.055100
 40
0.000000
 41
0.000000
 42
0.000000
  0
SEQEND
  0
POLYLINE
  8
0
 66
1
 70
0
 40
0.000000
 41
0.000000
 39
0.000000
  0
VERTEX
  8
0
 10
1756.378000
 20
817.966800
 40
0.000000
 41
0.000000
 42
0.265469
  0
VERTEX
  8
0
 10
1737.007900
 20
784.055100
 40
0.000000
 41
0.000000
 42
0.000000
  0
SEQEND
  0
POLYLINE
  8
0
 66
1
 70
0
 40
0.000000
 41
0.000000
 39
0.000000
  0
VERTEX
  8
0
 10
1815.748000
 20
784.055100
 40
0.000000
 41
0.000000
 42
0.265469
  0
VERTEX
  8
0
 10
1796.378000
 20
817.966800
 40
0.000000
 41
0.000000
 42
0.000000
  0
SEQEND
  0
POLYLINE
  8
0
 66
1
 70
0
 40
0.000000
 41
0.000000
 39
0.000000
  0
VERTEX
  8
0
 10
1763.700800
 20
2250.521400
 40
0.000000
 41
0.000000
 42
0.209659
  0
VERTEX
  8
0
 10
1773.228300
 20
2272.244100
 40
0.000000
 41
0.000000
 42
0.000000
  0
SEQEND
  0
POLYLINE
  8
0
 66
1
 70
0
 40
0.000000
 41
0.000000
 39
0.000000
  0
VERTEX
  8
0
 10
1714.173200
 20
2272.244100
 40
0.000000
 41
0.000000
 42
0.209660
  0
VERTEX
  8
0
 10
1723.700800
 20
2250.521300
 40
0.000000
 41
0.000000
 42
0.000000
  0
SEQEND
  0
POLYLINE
  8
0
 66
1
 70
0
 40
0.000000
 41
0.000000
 39
0.000000
  0
VERTEX
  8
0
 10
1773.228300
 20
2272.244100
 40
0.000000
 41
0.000000
 42
1.000000
  0
VERTEX
  8
0
 10
1714.173200
 20
2272.244100
 40
0.000000
 41
0.000000
 42
0.000000
  0
SEQEND
  0
POLYLINE
  8
0
 66
1
 70
0
 40
0.000000
 41
0.000000
 39
0.000000
  0
VERTEX
  8
0
 10
1614.173200
 20
2272.244100
 40
0.000000
 41
0.000000
 42
1.000000
  0
VERTEX
  8
0
 10
1673.228300
 20
2272.244100
 40
0.000000
 41
0.000000
 42
0.000000
  0
SEQEND
  0
POLYLINE
  8
0
 66
1
 70
0
 40
0.000000
 41
0.000000
 39
0.000000
  0
VERTEX
  8
0
 10
1623.700800
 20
2293.966900
 40
0.000000
 41
0.000000
 42
0.209660
  0
VERTEX
  8
0
 10
1614.173200
 20
2272.244100
 40
0.000000
 41
0.000000
 42
0.000000
  0
SEQEND
  0
POLYLINE
  8
0
 66
1
 70
0
 40
0.000000
 41
0.000000
 39
0.000000
  0
VERTEX
  8
0
 10
1673.228300
 20
2272.244100
 40
0.000000
 41
0.000000
 42
0.209659
  0
VERTEX
  8
0
 10
1663.700800
 20
2293.966800
 40
0.000000
 41
0.000000
 42
0.000000
  0
SEQEND
  0
POLYLINE
  8
0
 66
1
 70
0
 40
0.000000
 41
0.000000
 39
0.000000
  0
VERTEX
  8
0
 10
1563.700800
 20
2250.521400
 40
0.000000
 41
0.000000
 42
0.209659
  0
VERTEX
  8
0
 10
1573.228300
 20
2272.244100
 40
0.000000
 41
0.000000
 42
0.000000
  0
SEQEND
  0
POLYLINE
  8
0
 66
1
 70
0
 40
0.000000
 41
0.000000
 39
0.000000
  0
VERTEX
  8
0
 10
1514.173200
 20
2272.244100
 40
0.000000
 41
0.000000
 42
0.209660
  0
VERTEX
  8
0
 10
1523.700800
 20
2250.521300
 40
0.000000
 41
0.000000
 42
0.000000
  0
SEQEND
  0
POLYLINE
  8
0
 66
1
 70
0
 40
0.000000
 41
0.000000
 39
0.000000
  0
VERTEX
  8
0
 10
1573.228300
 20
2272.244100
 40
0.000000
 41
0.000000
 42
1.000000
  0
VERTEX
  8
0
 10
1514.173200
 20
2272.244100
 40
0.000000
 41
0.000000
 42
0.000000
  0
SEQEND
  0
POLYLINE
  8
0
 66
1
 70
0
 40
0.000000
 41
0.000000
 39
0.000000
  0
VERTEX
  8
0
 10
1363.700800
 20
2250.521400
 40
0.000000
 41
0.000000
 42
0.209659
  0
VERTEX
  8
0
 10
1373.228300
 20
2272.244100
 40
0.000000
 41
0.000000
 42
0.000000
  0
SEQEND
  0
POLYLINE
  8
0
 66
1
 70
0
 40
0.000000
 41
0.000000
 39
0.000000
  0
VERTEX
  8
0
 10
1314.173200
 20
2272.244100
 40
0.000000
 41
0.000000
 42
0.209660
  0
VERTEX
  8
0
 10
1323.700800
 20
2250.521300
 40
0.000000
 41
0.000000
 42
0.000000
  0
SEQEND
  0
POLYLINE
  8
0
 66
1
 70
0
 40
0.000000
 41
0.000000
 39
0.000000
  0
VERTEX
  8
0
 10
1373.228300
 20
2272.244100
 40
0.000000
 41
0.000000
 42
1.000000
  0
VERTEX
  8
0
 10
1314.173200
 20
2272.244100
 40
0.000000
 41
0.000000
 42
0.000000
  0
SEQEND
  0
POLYLINE
  8
0
 66
1
 70
0
 40
0.000000
 41
0.000000
 39
0.000000
  0
VERTEX
  8
0
 10
1414.173200
 20
2272.244100
 40
0.000000
 41
0.000000
 42
1.000000
  0
VERTEX
  8
0
 10
1473.228300
 20
2272.244100
 40
0.000000
 41
0.000000
 42
0.000000
  0
SEQEND
  0
POLYLINE
  8
0
 66
1
 70
0
 40
0.000000
 41
0.000000
 39
0.000000
  0
VERTEX
  8
0
 10
1423.700800
 20
2293.966900
 40
0.000000
 41
0.000000
 42
0.209660
  0
VERTEX
  8
0
 10
1414.173200
 20
2272.244100
 40
0.000000
 41
0.000000
 42
0.000000
  0
SEQEND
  0
POLYLINE
  8
0
 66
1
 70
0
 40
0.000000
 41
0.000000
 39
0.000000
  0
VERTEX
  8
0
 10
1473.228300
 20
2272.244100
 40
0.000000
 41
0.000000
 42
0.209659
  0
VERTEX
  8
0
 10
1463.700800
 20
2293.966800
 40
0.000000
 41
0.000000
 42
0.000000
  0
SEQEND
  0
POLYLINE
  8
0
 66
1
 70
0
 40
0.000000
 41
0.000000
 39
0.000000
  0
VERTEX
  8
0
 10
1214.173200
 20
2272.244100
 40
0.000000
 41
0.000000
 42
1.000000
  0
VERTEX
  8
0
 10
1273.228300
 20
2272.244100
 40
0.000000
 41
0.000000
 42
0.000000
  0
SEQEND
  0
POLYLINE
  8
0
 66
1
 70
0
 40
0.000000
 41
0.000000
 39
0.000000
  0
VERTEX
  8
0
 10
1223.700800
 20
2293.966900
 40
0.000000
 41
0.000000
 42
0.209660
  0
VERTEX
  8
0
 10
1214.173200
 20
2272.244100
 40
0.000000
 41
0.000000
 42
0.000000
  0
SEQEND
  0
POLYLINE
  8
0
 66
1
 70
0
 40
0.000000
 41
0.000000
 39
0.000000
  0
VERTEX
  8
0
 10
1273.228300
 20
2272.244100
 40
0.000000
 41
0.000000
 42
0.209659
  0
VERTEX
  8
0
 10
1263.700800
 20
2293.966800
 40
0.000000
 41
0.000000
 42
0.000000
  0
SEQEND
  0
POLYLINE
  8
0
 66
1
 70
0
 40
0.000000
 41
0.000000
 39
0.000000
  0
VERTEX
  8
0
 10
1163.700800
 20
2250.521400
 40
0.000000
 41
0.000000
 42
0.209659
  0
VERTEX
  8
0
 10
1173.228300
 20
2272.244100
 40
0.000000
 41
0.000000
 42
0.000000
  0
SEQEND
  0
POLYLINE
  8
0
 66
1
 70
0
 40
0.000000
 41
0.000000
 39
0.000000
  0
VERTEX
  8
0
 10
1114.173200
 20
2272.244100
 40
0.000000
 41
0.000000
 42
0.209660
  0
VERTEX
  8
0
 10
1123.700800
 20
2250.521300
 40
0.000000
 41
0.000000
 42
0.000000
  0
SEQEND
  0
POLYLINE
  8
0
 66
1
 70
0
 40
0.000000
 41
0.000000
 39
0.000000
  0
VERTEX
  8
0
 10
1173.228300
 20
2272.244100
 40
0.000000
 41
0.000000
 42
1.000000
  0
VERTEX
  8
0
 10
1114.173200
 20
2272.244100
 40
0.000000
 41
0.000000
 42
0.000000
  0
SEQEND
  0
POLYLINE
  8
0
 66
1
 70
0
 40
0.000000
 41
0.000000
 39
0.000000
  0
VERTEX
  8
0
 10
1014.173200
 20
2272.244100
 40
0.000000
 41
0.000000
 42
1.000000
  0
VERTEX
  8
0
 10
1073.228300
 20
2272.244100
 40
0.000000
 41
0.000000
 42
0.000000
  0
SEQEND
  0
POLYLINE
  8
0
 66
1
 70
0
 40
0.000000
 41
0.000000
 39
0.000000
  0
VERTEX
  8
0
 10
1023.700800
 20
2293.966900
 40
0.000000
 41
0.000000
 42
0.209660
  0
VERTEX
  8
0
 10
1014.173200
 20
2272.244100
 40
0.000000
 41
0.000000
 42
0.000000
  0
SEQEND
  0
POLYLINE
  8
0
 66
1
 70
0
 40
0.000000
 41
0.000000
 39
0.000000
  0
VERTEX
  8
0
 10
1073.228300
 20
2272.244100
 40
0.000000
 41
0.000000
 42
0.209659
  0
VERTEX
  8
0
 10
1063.700800
 20
2293.966800
 40
0.000000
 41
0.000000
 42
0.000000
  0
SEQEND
  0
POLYLINE
  8
0
 66
1
 70
0
 40
0.000000
 41
0.000000
 39
0.000000
  0
VERTEX
  8
0
 10
963.700800
 20
2250.521400
 40
0.000000
 41
0.000000
 42
0.209659
  0
VERTEX
  8
0
 10
973.228300
 20
2272.244100
 40
0.000000
 41
0.000000
 42
0.000000
  0
SEQEND
  0
POLYLINE
  8
0
 66
1
 70
0
 40
0.000000
 41
0.000000
 39
0.000000
  0
VERTEX
  8
0
 10
914.173200
 20
2272.244100
 40
0.000000
 41
0.000000
 42
0.209660
  0
VERTEX
  8
0
 10
923.700800
 20
2250.521300
 40
0.000000
 41
0.000000
 42
0.000000
  0
SEQEND
  0
POLYLINE
  8
0
 66
1
 70
0
 40
0.000000
 41
0.000000
 39
0.000000
  0
VERTEX
  8
0
 10
973.228300
 20
2272.244100
 40
0.000000
 41
0.000000
 42
1.000000
  0
VERTEX
  8
0
 10
914.173200
 20
2272.244100
 40
0.000000
 41
0.000000
 42
0.000000
  0
SEQEND
  0
POLYLINE
  8
0
 66
1
 70
0
 40
0.000000
 41
0.000000
 39
0.000000
  0
VERTEX
  8
0
 10
831.023600
 20
750.143400
 40
0.000000
 41
0.000000
 42
0.265469
  0
VERTEX
  8
0
 10
850.393700
 20
784.055100
 40
0.000000
 41
0.000000
 42
0.000000
  0
SEQEND
  0
POLYLINE
  8
0
 66
1
 70
0
 40
0.000000
 41
0.000000
 39
0.000000
  0
VERTEX
  8
0
 10
771.653500
 20
784.055100
 40
0.000000
 41
0.000000
 42
0.265469
  0
VERTEX
  8
0
 10
791.023600
 20
750.143400
 40
0.000000
 41
0.000000
 42
0.000000
  0
SEQEND
  0
POLYLINE
  8
0
 66
1
 70
0
 40
0.000000
 41
0.000000
 39
0.000000
  0
VERTEX
  8
0
 10
850.393700
 20
784.055100
 40
0.000000
 41
0.000000
 42
1.000000
  0
VERTEX
  8
0
 10
771.653500
 20
784.055100
 40
0.000000
 41
0.000000
 42
0.000000
  0
SEQEND
  0
POLYLINE
  8
0
 66
1
 70
0
 40
0.000000
 41
0.000000
 39
0.000000
  0
VERTEX
  8
0
 10
814.173200
 20
2272.244100
 40
0.000000
 41
0.000000
 42
1.000000
  0
VERTEX
  8
0
 10
873.228300
 20
2272.244100
 40
0.000000
 41
0.000000
 42
0.000000
  0
SEQEND
  0
POLYLINE
  8
0
 66
1
 70
0
 40
0.000000
 41
0.000000
 39
0.000000
  0
VERTEX
  8
0
 10
823.700800
 20
2293.966900
 40
0.000000
 41
0.000000
 42
0.209660
  0
VERTEX
  8
0
 10
814.173200
 20
2272.244100
 40
0.000000
 41
0.000000
 42
0.000000
  0
SEQEND
  0
POLYLINE
  8
0
 66
1
 70
0
 40
0.000000
 41
0.000000
 39
0.000000
  0
VERTEX
  8
0
 10
873.228300
 20
2272.244100
 40
0.000000
 41
0.000000
 42
0.209659
  0
VERTEX
  8
0
 10
863.700800
 20
2293.966800
 40
0.000000
 41
0.000000
 42
0.000000
  0
SEQEND
  0
POLYLINE
  8
0
 66
1
 70
0
 40
0.000000
 41
0.000000
 39
0.000000
  0
VERTEX
  8
0
 10
671.653500
 20
784.055100
 40
0.000000
 41
0.000000
 42
1.000000
  0
VERTEX
  8
0
 10
750.393700
 20
784.055100
 40
0.000000
 41
0.000000
 42
0.000000
  0
SEQEND
  0
POLYLINE
  8
0
 66
1
 70
0
 40
0.000000
 41
0.000000
 39
0.000000
  0
VERTEX
  8
0
 10
691.023600
 20
817.966800
 40
0.000000
 41
0.000000
 42
0.265469
  0
VERTEX
  8
0
 10
671.653500
 20
784.055100
 40
0.000000
 41
0.000000
 42
0.000000
  0
SEQEND
  0
POLYLINE
  8
0
 66
1
 70
0
 40
0.000000
 41
0.000000
 39
0.000000
  0
VERTEX
  8
0
 10
750.393700
 20
784.055100
 40
0.000000
 41
0.000000
 42
0.265469
  0
VERTEX
  8
0
 10
731.023600
 20
817.966800
 40
0.000000
 41
0.000000
 42
0.000000
  0
SEQEND
  0
POLYLINE
  8
0
 66
1
 70
0
 40
0.000000
 41
0.000000
 39
0.000000
  0
VERTEX
  8
0
 10
763.700800
 20
2250.521400
 40
0.000000
 41
0.000000
 42
0.209659
  0
VERTEX
  8
0
 10
773.228300
 20
2272.244100
 40
0.000000
 41
0.000000
 42
0.000000
  0
SEQEND
  0
POLYLINE
  8
0
 66
1
 70
0
 40
0.000000
 41
0.000000
 39
0.000000
  0
VERTEX
  8
0
 10
714.173200
 20
2272.244100
 40
0.000000
 41
0.000000
 42
0.209660
  0
VERTEX
  8
0
 10
723.700800
 20
2250.521300
 40
0.000000
 41
0.000000
 42
0.000000
  0
SEQEND
  0
POLYLINE
  8
0
 66
1
 70
0
 40
0.000000
 41
0.000000
 39
0.000000
  0
VERTEX
  8
0
 10
773.228300
 20
2272.244100
 40
0.000000
 41
0.000000
 42
1.000000
  0
VERTEX
  8
0
 10
714.173200
 20
2272.244100
 40
0.000000
 41
0.000000
 42
0.000000
  0
SEQEND
  0
POLYLINE
  8
0
 66
1
 70
0
 40
0.000000
 41
0.000000
 39
0.000000
  0
VERTEX
  8
0
 10
823.700800
 20
2331.299200
 40
0.000000
 41
0.000000
 42
0.000000
  0
VERTEX
  8
0
 10
437.401600
 20
2331.299200
 40
0.000000
 41
0.000000
 42
0.000000
  0
SEQEND
  0
POLYLINE
  8
0
 66
1
 70
0
 40
0.000000
 41
0.000000
 39
0.000000
  0
VERTEX
  8
0
 10
1023.700800
 20
2331.299200
 40
0.000000
 41
0.000000
 42
0.000000
  0
VERTEX
  8
0
 10
863.700800
 20
2331.299200
 40
0.000000
 41
0.000000
 42
0.000000
  0
SEQEND
  0
POLYLINE
  8
0
 66
1
 70
0
 40
0.000000
 41
0.000000
 39
0.000000
  0
VERTEX
  8
0
 10
1223.700800
 20
2331.299200
 40
0.000000
 41
0.000000
 42
0.000000
  0
VERTEX
  8
0
 10
1063.700800
 20
2331.299200
 40
0.000000
 41
0.000000
 42
0.000000
  0
SEQEND
  0
POLYLINE
  8
0
 66
1
 70
0
 40
0.000000
 41
0.000000
 39
0.000000
  0
VERTEX
  8
0
 10
1423.700800
 20
2331.299200
 40
0.000000
 41
0.000000
 42
0.000000
  0
VERTEX
  8
0
 10
1263.700800
 20
2331.299200
 40
0.000000
 41
0.000000
 42
0.000000
  0
SEQEND
  0
POLYLINE
  8
0
 66
1
 70
0
 40
0.000000
 41
0.000000
 39
0.000000
  0
VERTEX
  8
0
 10
1623.700800
 20
2331.299200
 40
0.000000
 41
0.000000
 42
0.000000
  0
VERTEX
  8
0
 10
1463.700800
 20
2331.299200
 40
0.000000
 41
0.000000
 42
0.000000
  0
SEQEND
  0
POLYLINE
  8
0
 66
1
 70
0
 40
0.000000
 41
0.000000
 39
0.000000
  0
VERTEX
  8
0
 10
1823.700800
 20
2331.299200
 40
0.000000
 41
0.000000
 42
0.000000
  0
VERTEX
  8
0
 10
1663.700800
 20
2331.299200
 40
0.000000
 41
0.000000
 42
0.000000
  0
SEQEND
  0
POLYLINE
  8
0
 66
1
 70
0
 40
0.000000
 41
0.000000
 39
0.000000
  0
VERTEX
  8
0
 10
2150.000000
 20
2331.299200
 40
0.000000
 41
0.000000
 42
0.000000
  0
VERTEX
  8
0
 10
1863.700800
 20
2331.299200
 40
0.000000
 41
0.000000
 42
0.000000
  0
SEQEND
  0
POLYLINE
  8
0
 66
1
 70
0
 40
0.000000
 41
0.000000
 39
0.000000
  0
VERTEX
  8
0
 10
437.401600
 20
2331.299200
 40
0.000000
 41
0.000000
 42
0.000000
  0
VERTEX
  8
0
 10
437.401600
 20
725.000000
 40
0.000000
 41
0.000000
 42
0.000000
  0
SEQEND
  0
POLYLINE
  8
0
 66
1
 70
0
 40
0.000000
 41
0.000000
 39
0.000000
  0
VERTEX
  8
0
 10
1896.378000
 20
725.000000
 40
0.000000
 41
0.000000
 42
0.000000
  0
VERTEX
  8
0
 10
2150.000000
 20
725.000000
 40
0.000000
 41
0.000000
 42
0.000000
  0
SEQEND
  0
POLYLINE
  8
0
 66
1
 70
0
 40
0.000000
 41
0.000000
 39
0.000000
  0
VERTEX
  8
0
 10
831.023600
 20
725.000000
 40
0.000000
 41
0.000000
 42
0.000000
  0
VERTEX
  8
0
 10
1856.378000
 20
725.000000
 40
0.000000
 41
0.000000
 42
0.000000
  0
SEQEND
  0
POLYLINE
  8
0
 66
1
 70
0
 40
0.000000
 41
0.000000
 39
0.000000
  0
VERTEX
  8
0
 10
437.401600
 20
725.000000
 40
0.000000
 41
0.000000
 42
0.000000
  0
VERTEX
  8
0
 10
791.023600
 20
725.000000
 40
0.000000
 41
0.000000
 42
0.000000
  0
SEQEND
  0
POLYLINE
  8
0
 66
1
 70
0
 40
0.000000
 41
0.000000
 39
0.000000
  0
VERTEX
  8
0
 10
2150.000000
 20
725.000000
 40
0.000000
 41
0.000000
 42
0.000000
  0
VERTEX
  8
0
 10
2150.000000
 20
2331.299200
 40
0.000000
 41
0.000000
 42
0.000000
  0
SEQEND
  0
POLYLINE
  8
0
 66
1
 70
0
 40
0.000000
 41
0.000000
 39
0.000000
  0
VERTEX
  8
0
 10
2039.763800
 20
2034.055100
 40
0.000000
 41
0.000000
 42
0.000000
  0
VERTEX
  8
0
 10
547.637800
 20
2034.055100
 40
0.000000
 41
0.000000
 42
0.000000
  0
SEQEND
  0
POLYLINE
  8
0
 66
1
 70
0
 40
0.000000
 41
0.000000
 39
0.000000
  0
VERTEX
  8
0
 10
547.637800
 20
2034.055100
 40
0.000000
 41
0.000000
 42
0.000000
  0
VERTEX
  8
0
 10
547.637800
 20
1128.149600
 40
0.000000
 41
0.000000
 42
0.000000
  0
SEQEND
  0
POLYLINE
  8
0
 66
1
 70
0
 40
0.000000
 41
0.000000
 39
0.000000
  0
VERTEX
  8
0
 10
547.637800
 20
1128.149600
 40
0.000000
 41
0.000000
 42
0.000000
  0
VERTEX
  8
0
 10
2039.763800
 20
1128.149600
 40
0.000000
 41
0.000000
 42
0.000000
  0
SEQEND
  0
POLYLINE
  8
0
 66
1
 70
0
 40
0.000000
 41
0.000000
 39
0.000000
  0
VERTEX
  8
0
 10
2039.763800
 20
1128.149600
 40
0.000000
 41
0.000000
 42
0.000000
  0
VERTEX
  8
0
 10
2039.763800
 20
2034.055100
 40
0.000000
 41
0.000000
 42
0.000000
  0
SEQEND
  0
TEXT
  8
0
 10
1122.666600
 20
2464.333300
 11
0.000000
 21
0.000000
 40
25.000000
 41
0.880000
 50
270.000000
  7
STANDARD
 71
2
 72
0
  1
U1
 73
0
  0
POLYLINE
  8
0
 66
1
 70
0
 40
0.000000
 41
0.000000
 39
0.000000
  0
VERTEX
  8
0
 10
2380.000000
 20
1200.000000
 40
0.000000
 41
0.000000
 42
0.000000
  0
VERTEX
  8
0
 10
2180.000000
 20
1200.000000
 40
0.000000
 41
0.000000
 42
0.000000
  0
VERTEX
  8
0
 10
2180.000000
 20
800.000000
 40
0.000000
 41
0.000000
 42
0.000000
  0
VERTEX
  8
0
 10
2380.000000
 20
800.000000
 40
0.000000
 41
0.000000
 42
0.000000
  0
VERTEX
  8
0
 10
2380.000000
 20
1200.000000
 40
0.000000
 41
0.000000
 42
0.000000
  0
SEQEND
  0
POLYLINE
  8
0
 66
1
 70
0
 40
0.000000
 41
0.000000
 39
0.000000
  0
VERTEX
  8
0
 10
2308.126600
 20
956.626600
 40
0.000000
 41
0.000000
 42
0.250676
  0
VERTEX
  8
0
 10
2327.924800
 20
993.634700
 40
0.000000
 41
0.000000
 42
0.000000
  0
SEQEND
  0
POLYLINE
  8
0
 66
1
 70
0
 40
0.000000
 41
0.000000
 39
0.000000
  0
VERTEX
  8
0
 10
2283.436600
 20
949.146500
 40
0.000000
 41
0.000000
 42
0.107656
  0
VERTEX
  8
0
 10
2301.940800
 20
953.177400
 40
0.000000
 41
0.000000
 42
0.000000
  0
SEQEND
  0
POLYLINE
  8
0
 66
1
 70
0
 40
0.000000
 41
0.000000
 39
0.000000
  0
VERTEX
  8
0
 10
2264.932600
 20
953.177300
 40
0.000000
 41
0.000000
 42
0.107655
  0
VERTEX
  8
0
 10
2283.436600
 20
949.146500
 40
0.000000
 41
0.000000
 42
0.000000
  0
SEQEND
  0
POLYLINE
  8
0
 66
1
 70
0
 40
0.000000
 41
0.000000
 39
0.000000
  0
VERTEX
  8
0
 10
2238.948500
 20
993.634700
 40
0.000000
 41
0.000000
 42
0.250676
  0
VERTEX
  8
0
 10
2258.746700
 20
956.626600
 40
0.000000
 41
0.000000
 42
0.000000
  0
SEQEND
  0
POLYLINE
  8
0
 66
1
 70
0
 40
0.000000
 41
0.000000
 39
0.000000
  0
VERTEX
  8
0
 10
2258.746400
 20
1030.642600
 40
0.000000
 41
0.000000
 42
0.250674
  0
VERTEX
  8
0
 10
2238.948500
 20
993.634700
 40
0.000000
 41
0.000000
 42
0.000000
  0
SEQEND
  0
POLYLINE
  8
0
 66
1
 70
0
 40
0.000000
 41
0.000000
 39
0.000000
  0
VERTEX
  8
0
 10
2283.436600
 20
1038.122900
 40
0.000000
 41
0.000000
 42
0.107655
  0
VERTEX
  8
0
 10
2264.932600
 20
1034.092100
 40
0.000000
 41
0.000000
 42
0.000000
  0
SEQEND
  0
POLYLINE
  8
0
 66
1
 70
0
 40
0.000000
 41
0.000000
 39
0.000000
  0
VERTEX
  8
0
 10
2301.940800
 20
1034.092000
 40
0.000000
 41
0.000000
 42
0.107656
  0
VERTEX
  8
0
 10
2283.436600
 20
1038.122900
 40
0.000000
 41
0.000000
 42
0.000000
  0
SEQEND
  0
POLYLINE
  8
0
 66
1
 70
0
 40
0.000000
 41
0.000000
 39
0.000000
  0
VERTEX
  8
0
 10
2327.924800
 20
993.634700
 40
0.000000
 41
0.000000
 42
0.250674
  0
VERTEX
  8
0
 10
2308.126900
 20
1030.642600
 40
0.000000
 41
0.000000
 42
0.000000
  0
SEQEND
  0
TEXT
  8
0
 10
2165.666600
 20
922.666600
 11
0.000000
 21
0.000000
 40
25.000000
 41
0.880000
 50
0.000000
  7
STANDARD
 71
2
 72
0
  1
J3
 73
0
  0
POLYLINE
  8
0
 66
1
 70
0
 40
0.000000
 41
0.000000
 39
0.000000
  0
VERTEX
  8
0
 10
425.000000
 20
1200.000000
 40
0.000000
 41
0.000000
 42
0.000000
  0
VERTEX
  8
0
 10
225.000000
 20
1200.000000
 40
0.000000
 41
0.000000
 42
0.000000
  0
VERTEX
  8
0
 10
225.000000
 20
800.000000
 40
0.000000
 41
0.000000
 42
0.000000
  0
VERTEX
  8
0
 10
425.000000
 20
800.000000
 40
0.000000
 41
0.000000
 42
0.000000
  0
VERTEX
  8
0
 10
425.000000
 20
1200.000000
 40
0.000000
 41
0.000000
 42
0.000000
  0
SEQEND
  0
POLYLINE
  8
0
 66
1
 70
0
 40
0.000000
 41
0.000000
 39
0.000000
  0
VERTEX
  8
0
 10
353.126400
 20
956.626600
 40
0.000000
 41
0.000000
 42
0.250677
  0
VERTEX
  8
0
 10
372.924700
 20
993.634700
 40
0.000000
 41
0.000000
 42
0.000000
  0
SEQEND
  0
POLYLINE
  8
0
 66
1
 70
0
 40
0.000000
 41
0.000000
 39
0.000000
  0
VERTEX
  8
0
 10
328.436600
 20
949.146600
 40
0.000000
 41
0.000000
 42
0.107656
  0
VERTEX
  8
0
 10
346.940800
 20
953.177500
 40
0.000000
 41
0.000000
 42
0.000000
  0
SEQEND
  0
POLYLINE
  8
0
 66
1
 70
0
 40
0.000000
 41
0.000000
 39
0.000000
  0
VERTEX
  8
0
 10
309.932600
 20
953.177500
 40
0.000000
 41
0.000000
 42
0.107655
  0
VERTEX
  8
0
 10
328.436600
 20
949.146600
 40
0.000000
 41
0.000000
 42
0.000000
  0
SEQEND
  0
POLYLINE
  8
0
 66
1
 70
0
 40
0.000000
 41
0.000000
 39
0.000000
  0
VERTEX
  8
0
 10
283.948600
 20
993.634700
 40
0.000000
 41
0.000000
 42
0.250677
  0
VERTEX
  8
0
 10
303.746900
 20
956.626600
 40
0.000000
 41
0.000000
 42
0.000000
  0
SEQEND
  0
POLYLINE
  8
0
 66
1
 70
0
 40
0.000000
 41
0.000000
 39
0.000000
  0
VERTEX
  8
0
 10
303.746600
 20
1030.642600
 40
0.000000
 41
0.000000
 42
0.250675
  0
VERTEX
  8
0
 10
283.948600
 20
993.634700
 40
0.000000
 41
0.000000
 42
0.000000
  0
SEQEND
  0
POLYLINE
  8
0
 66
1
 70
0
 40
0.000000
 41
0.000000
 39
0.000000
  0
VERTEX
  8
0
 10
328.436600
 20
1038.122800
 40
0.000000
 41
0.000000
 42
0.107655
  0
VERTEX
  8
0
 10
309.932600
 20
1034.091900
 40
0.000000
 41
0.000000
 42
0.000000
  0
SEQEND
  0
POLYLINE
  8
0
 66
1
 70
0
 40
0.000000
 41
0.000000
 39
0.000000
  0
VERTEX
  8
0
 10
346.940800
 20
1034.091900
 40
0.000000
 41
0.000000
 42
0.107656
  0
VERTEX
  8
0
 10
328.436600
 20
1038.122800
 40
0.000000
 41
0.000000
 42
0.000000
  0
SEQEND
  0
POLYLINE
  8
0
 66
1
 70
0
 40
0.000000
 41
0.000000
 39
0.000000
  0
VERTEX
  8
0
 10
372.924700
 20
993.634700
 40
0.000000
 41
0.000000
 42
0.250675
  0
VERTEX
  8
0
 10
353.126700
 20
1030.642600
 40
0.000000
 41
0.000000
 42
0.000000
  0
SEQEND
  0
TEXT
  8
0
 10
200.000000
 20
950.000000
 11
0.000000
 21
0.000000
 40
25.000000
 41
0.880000
 50
90.000000
  7
STANDARD
 71
2
 72
0
  1
J2
 73
0
  0
POLYLINE
  8
0
 66
1
 70
0
 40
0.000000
 41
0.000000
 39
0.000000
  0
VERTEX
  8
0
 10
1472.666600
 20
2488.237700
 40
0.000000
 41
0.000000
 42
0.000000
  0
VERTEX
  8
0
 10
1472.666600
 20
2688.237700
 40
0.000000
 41
0.000000
 42
0.000000
  0
VERTEX
  8
0
 10
1072.666600
 20
2688.237700
 40
0.000000
 41
0.000000
 42
0.000000
  0
VERTEX
  8
0
 10
1072.666600
 20
2488.237700
 40
0.000000
 41
0.000000
 42
0.000000
  0
VERTEX
  8
0
 10
1472.666600
 20
2488.237700
 40
0.000000
 41
0.000000
 42
0.000000
  0
SEQEND
  0
POLYLINE
  8
0
 66
1
 70
0
 40
0.000000
 41
0.000000
 39
0.000000
  0
VERTEX
  8
0
 10
1306.758700
 20
2566.297000
 40
0.000000
 41
0.000000
 42
0.107655
  0
VERTEX
  8
0
 10
1310.789500
 20
2584.801100
 40
0.000000
 41
0.000000
 42
0.000000
  0
SEQEND
  0
POLYLINE
  8
0
 66
1
 70
0
 40
0.000000
 41
0.000000
 39
0.000000
  0
VERTEX
  8
0
 10
1266.301300
 20
2540.312900
 40
0.000000
 41
0.000000
 42
0.250675
  0
VERTEX
  8
0
 10
1303.309400
 20
2560.110900
 40
0.000000
 41
0.000000
 42
0.000000
  0
SEQEND
  0
POLYLINE
  8
0
 66
1
 70
0
 40
0.000000
 41
0.000000
 39
0.000000
  0
VERTEX
  8
0
 10
1229.293200
 20
2560.110900
 40
0.000000
 41
0.000000
 42
0.250675
  0
VERTEX
  8
0
 10
1266.301300
 20
2540.312900
 40
0.000000
 41
0.000000
 42
0.000000
  0
SEQEND
  0
POLYLINE
  8
0
 66
1
 70
0
 40
0.000000
 41
0.000000
 39
0.000000
  0
VERTEX
  8
0
 10
1221.813100
 20
2584.801100
 40
0.000000
 41
0.000000
 42
0.107655
  0
VERTEX
  8
0
 10
1225.843900
 20
2566.297000
 40
0.000000
 41
0.000000
 42
0.000000
  0
SEQEND
  0
POLYLINE
  8
0
 66
1
 70
0
 40
0.000000
 41
0.000000
 39
0.000000
  0
VERTEX
  8
0
 10
1225.843900
 20
2603.305000
 40
0.000000
 41
0.000000
 42
0.107654
  0
VERTEX
  8
0
 10
1221.813100
 20
2584.801100
 40
0.000000
 41
0.000000
 42
0.000000
  0
SEQEND
  0
POLYLINE
  8
0
 66
1
 70
0
 40
0.000000
 41
0.000000
 39
0.000000
  0
VERTEX
  8
0
 10
1266.301300
 20
2629.289300
 40
0.000000
 41
0.000000
 42
0.250675
  0
VERTEX
  8
0
 10
1229.293200
 20
2609.491200
 40
0.000000
 41
0.000000
 42
0.000000
  0
SEQEND
  0
POLYLINE
  8
0
 66
1
 70
0
 40
0.000000
 41
0.000000
 39
0.000000
  0
VERTEX
  8
0
 10
1303.309400
 20
2609.491200
 40
0.000000
 41
0.000000
 42
0.250675
  0
VERTEX
  8
0
 10
1266.301300
 20
2629.289300
 40
0.000000
 41
0.000000
 42
0.000000
  0
SEQEND
  0
POLYLINE
  8
0
 66
1
 70
0
 40
0.000000
 41
0.000000
 39
0.000000
  0
VERTEX
  8
0
 10
1310.789500
 20
2584.801100
 40
0.000000
 41
0.000000
 42
0.107654
  0
VERTEX
  8
0
 10
1306.758700
 20
2603.305000
 40
0.000000
 41
0.000000
 42
0.000000
  0
SEQEND
  0
POLYLINE
  8
0
 66
1
 70
0
 40
0.000000
 41
0.000000
 39
0.000000
  0
VERTEX
  8
0
 10
1734.995000
 20
485.000000
 40
0.000000
 41
0.000000
 42
1.000000
  0
VERTEX
  8
0
 10
1574.995000
 20
485.000000
 40
0.000000
 41
0.000000
 42
1.000000
  0
VERTEX
  8
0
 10
1734.995000
 20
485.000000
 40
0.000000
 41
0.000000
 42
0.000000
  0
SEQEND
  0
POLYLINE
  8
0
 66
1
 70
0
 40
0.000000
 41
0.000000
 39
0.000000
  0
VERTEX
  8
0
 10
994.995000
 20
485.000000
 40
0.000000
 41
0.000000
 42
1.000000
  0
VERTEX
  8
0
 10
834.995000
 20
485.000000
 40
0.000000
 41
0.000000
 42
1.000000
  0
VERTEX
  8
0
 10
994.995000
 20
485.000000
 40
0.000000
 41
0.000000
 42
0.000000
  0
SEQEND
  0
POLYLINE
  8
0
 66
1
 70
0
 40
0.000000
 41
0.000000
 39
0.000000
  0
VERTEX
  8
0
 10
1999.892600
 20
1365.461500
 40
0.000000
 41
0.000000
 42
0.000000
  0
VERTEX
  8
0
 10
1999.892600
 20
1365.324300
 40
0.000000
 41
0.000000
 42
0.000000
  0
SEQEND
  0
POLYLINE
  8
0
 66
1
 70
0
 40
0.000000
 41
0.000000
 39
0.000000
  0
VERTEX
  8
0
 10
2578.997800
 20
1490.000000
 40
0.000000
 41
0.000000
 42
1.000000
  0
VERTEX
  8
0
 10
1.002200
 20
1490.000000
 40
0.000000
 41
0.000000
 42
1.000000
  0
VERTEX
  8
0
 10
2578.997800
 20
1490.000000
 40
0.000000
 41
0.000000
 42
0.000000
  0
SEQEND
  0
POLYLINE
  8
0
 66
1
 70
1
 40
0.000000
 41
0.000000
 39
0.000000
  0
VERTEX
  8
0
 10
509.500000
 20
1079.000000
 40
0.000000
 41
0.000000
 42
0.000000
  0
VERTEX
  8
0
 10
509.500000
 20
2083.000000
 40
0.000000
 41
0.000000
 42
0.000000
  0
VERTEX
  8
0
 10
2076.500000
 20
2083.000000
 40
0.000000
 41
0.000000
 42
0.000000
  0
VERTEX
  8
0
 10
2076.500000
 20
1079.000000
 40
0.000000
 41
0.000000
 42
0.000000
  0
SEQEND
  0
ENDSEC
  0
EOF
